<?xml version="1.0" encoding="utf-8"?>
<!-- Generator: Adobe Illustrator 16.0.3, SVG Export Plug-In . SVG Version: 6.00 Build 0)  -->
<!DOCTYPE svg PUBLIC "-//W3C//DTD SVG 1.1//EN" "http://www.w3.org/Graphics/SVG/1.1/DTD/svg11.dtd">
<svg version="1.1" id="Vrstva_1" xmlns="http://www.w3.org/2000/svg" xmlns:xlink="http://www.w3.org/1999/xlink" x="0px" y="0px"
	 width="16px" height="16px" viewBox="4 0 16 16" enable-background="new 4 0 16 16" xml:space="preserve">
<path d="M20,2.667C20,1.194,18.806,0,17.333,0s-2.666,1.194-2.666,2.667c0,0.216,0.032,0.423,0.081,0.624l-3.659,1.951
	c0.264,0.357,0.477,0.751,0.629,1.176l3.658-1.951c0.502,0.551,1.213,0.866,1.957,0.867C18.806,5.333,20,4.139,20,2.667z
	 M14.748,12.71c-0.052,0.204-0.079,0.413-0.081,0.623c0,1.473,1.193,2.667,2.666,2.667S20,14.806,20,13.333
	s-1.194-2.666-2.667-2.666c-0.744,0.001-1.455,0.315-1.957,0.867l-3.658-1.951c-0.151,0.42-0.363,0.816-0.629,1.176L14.748,12.71z
	 M4,8c0,1.841,1.493,3.333,3.334,3.333c1.841,0,3.334-1.492,3.333-3.333l0,0c0-1.841-1.492-3.334-3.333-3.333
	C5.492,4.666,4,6.159,4,8z"/>
</svg>
