<?xml version="1.0" encoding="utf-8"?>
<!-- Generator: Adobe Illustrator 16.0.3, SVG Export Plug-In . SVG Version: 6.00 Build 0)  -->
<!DOCTYPE svg PUBLIC "-//W3C//DTD SVG 1.1//EN" "http://www.w3.org/Graphics/SVG/1.1/DTD/svg11.dtd">
<svg version="1.1" id="Vrstva_1" xmlns="http://www.w3.org/2000/svg" xmlns:xlink="http://www.w3.org/1999/xlink" x="0px" y="0px"
	 width="16px" height="16px" viewBox="4 0 16 16" enable-background="new 4 0 16 16" xml:space="preserve">
<path d="M12,10.667c-1.473,0-2.667-1.194-2.667-2.667S10.527,5.333,12,5.333S14.667,6.527,14.667,8S13.473,10.667,12,10.667z
	 M20,9.077V6.922c-1.101-0.391-1.796-0.501-2.146-1.346v0c-0.352-0.848,0.066-1.423,0.564-2.471l-1.523-1.523
	c-1.041,0.495-1.622,0.917-2.471,0.564h-0.002C13.577,1.795,13.467,1.095,13.077,0h-2.155c-0.388,1.09-0.499,1.794-1.346,2.146
	H9.576C8.729,2.498,8.155,2.081,7.105,1.582L5.582,3.105C6.078,4.15,6.498,4.727,6.146,5.576C5.794,6.423,5.09,6.535,4,6.922v2.155
	c1.088,0.387,1.794,0.5,2.146,1.346c0.354,0.855-0.076,1.444-0.564,2.472l1.523,1.524c1.041-0.496,1.622-0.917,2.471-0.564h0.001
	c0.847,0.35,0.957,1.052,1.346,2.146h2.155c0.389-1.091,0.5-1.793,1.352-2.148h0.001c0.841-0.349,1.413,0.067,2.465,0.567
	l1.523-1.523c-0.496-1.043-0.917-1.622-0.565-2.471C18.204,9.577,18.911,9.465,20,9.077z"/>
</svg>
