<?xml version="1.0" encoding="utf-8"?>
<!-- Generator: Adobe Illustrator 16.0.3, SVG Export Plug-In . SVG Version: 6.00 Build 0)  -->
<!DOCTYPE svg PUBLIC "-//W3C//DTD SVG 1.1//EN" "http://www.w3.org/Graphics/SVG/1.1/DTD/svg11.dtd">
<svg version="1.1" id="Vrstva_1" xmlns="http://www.w3.org/2000/svg" xmlns:xlink="http://www.w3.org/1999/xlink" x="0px" y="0px"
	 width="16px" height="16px" viewBox="4 0 16 16" enable-background="new 4 0 16 16" xml:space="preserve">
<g>
	<g>
		<path d="M10,10.667c2.573,0,4.667-2.094,4.667-4.667S12.573,1.333,10,1.333C7.427,1.333,5.333,3.427,5.333,6
			S7.427,10.667,10,10.667z M18.114,16l-4.924-4.925C12.236,11.68,11.129,12,10,12c-3.314,0-6-2.687-6-6c0-3.314,2.686-6,6-6
			c3.313,0,6,2.686,6,6c0,1.129-0.32,2.236-0.925,3.19L20,14.114L18.114,16z M12.667,6.667h-2v2H9.333v-2h-2V5.333h2v-2h1.333v2h2
			V6.667z"/>
	</g>
</g>
</svg>
