<?xml version="1.0" standalone="no"?>
<!DOCTYPE svg PUBLIC "-//W3C//DTD SVG 20010904//EN"
 "http://www.w3.org/TR/2001/REC-SVG-20010904/DTD/svg10.dtd">
<svg version="1.0" xmlns="http://www.w3.org/2000/svg"
 width="768.000000pt" height="768.000000pt" viewBox="0 0 768.000000 768.000000"
 preserveAspectRatio="xMidYMid meet">
<metadata>
Created by potrace 1.11, written by Peter Selinger 2001-2013
</metadata>
<g transform="translate(0.000000,768.000000) scale(0.100000,-0.100000)"
fill="#000000" stroke="none">
<path d="M2155 6698 c-33 -12 -79 -34 -102 -49 -43 -30 -1894 -1876 -1956
-1951 -62 -75 -91 -151 -93 -242 -2 -99 23 -182 78 -256 36 -49 3024 -3033
3066 -3062 41 -28 101 -58 132 -65 51 -11 151 -14 185 -4 22 6 43 9 46 8 4 -1
15 5 25 13 11 9 32 22 49 30 101 50 202 183 230 304 21 88 0 211 -46 278 -11
14 -19 29 -19 33 0 9 30 -22 -511 522 -268 268 -494 504 -504 523 -62 121 -51
278 29 414 13 23 319 336 679 696 359 360 665 673 678 695 52 85 68 138 65
227 -4 103 -7 114 -51 193 -29 52 -168 197 -796 824 -418 418 -779 776 -802
795 -113 91 -253 118 -382 74z m554 -1463 c379 -379 423 -426 411 -441 -30
-36 -1202 -1204 -1209 -1204 -3 0 -197 192 -431 425 l-425 425 610 610 c336
336 612 610 615 610 3 0 196 -191 429 -425z"/>
<path d="M4206 6709 c-91 -22 -247 -137 -277 -204 -5 -11 -17 -33 -27 -50 -48
-79 -60 -226 -25 -305 3 -8 7 -17 8 -20 3 -13 40 -78 57 -100 10 -14 236 -243
502 -510 299 -300 491 -500 503 -525 61 -120 46 -294 -36 -414 -21 -31 -326
-344 -678 -696 -351 -352 -651 -656 -666 -676 -14 -19 -38 -65 -51 -101 -49
-130 -23 -282 68 -392 18 -23 378 -386 800 -807 738 -739 769 -768 844 -805
73 -37 82 -39 172 -39 90 0 99 2 172 38 75 36 102 63 1040 1001 584 583 978
985 999 1017 48 75 60 113 64 200 5 89 -11 150 -58 228 -22 37 -492 513 -1527
1548 -822 823 -1516 1513 -1542 1534 -27 21 -74 47 -105 59 -66 25 -179 34
-237 19z m1994 -2945 l424 -425 -612 -612 -612 -612 -428 429 -428 428 609
609 c335 335 612 609 616 609 3 0 197 -192 431 -426z"/>
</g>
</svg>
