<?xml version="1.0" encoding="UTF-8"?>
<!DOCTYPE svg PUBLIC "-//W3C//DTD SVG 1.1//EN" "http://www.w3.org/Graphics/SVG/1.1/DTD/svg11.dtd">
<svg xmlns="http://www.w3.org/2000/svg">
    <symbol id="arrow-down" viewBox="-2 0 16 16">
        <path d="M-2 5.415L.667 2.667 6 8l5.333-5.333L14 5.415l-8 7.918-8-7.918z"/>
    </symbol>
    <symbol id="arrow-left" viewBox="0 0 8 12">
        <path d="M2.061 12L0 10l4-4-4-4 2.061-2L8 6z"/>
    </symbol>
    <symbol id="arrow-up" viewBox="-2 0 16 16">
        <path d="M14 10.585l-2.666 2.748L6 8 .667 13.333-2 10.585l8-7.918 8 7.918z"/>
    </symbol>
    <symbol id="back" viewBox="4 0 16 16">
        <path d="M11.317 15.333l1.898-1.885-4.118-4.117H20V6.67H9.097l4.118-4.117L11.317.667 4 8l7.317 7.333z"/>
    </symbol>
    <symbol id="book" viewBox="2 0 16 16">
        <path d="M16.667 0H5.333a2 2 0 00-2 2v12a2 2 0 002 2h11.334V2.667H14V8l-1.333-1.333L11.333 8V2.667h-5.67c-.917 0-.917-1.333 0-1.333h11.004V0z"/>
    </symbol>
    <symbol id="check" viewBox="0 0 16 13">
        <path d="M13.523 0L6 7.711l-3.524-3.34L0 6.848l6 5.819 10-10.19z"/>
    </symbol>
    <symbol id="close" viewBox="4 0 16 16">
        <path d="M20 13.458l-5.543-5.472 5.466-5.521L17.458 0l-5.474 5.545L6.444.076 4 2.521l5.547 5.493-5.471 5.542L6.521 16l5.491-5.546 5.523 5.469L20 13.458z"/>
    </symbol>
    <symbol id="globe" viewBox="4 0 16 16">
        <path d="M13.578 1.528a6.728 6.728 0 014.533 3.806h-3.103a13.605 13.605 0 00-1.43-3.806M12 1.482c.751 1.219 1.287 2.354 1.642 3.852h-3.284c.368-1.55.915-2.672 1.642-3.852m-1.571.032a13.643 13.643 0 00-1.438 3.819H5.889a6.646 6.646 0 014.54-3.819m8.104 5.153c.183.901.174 1.81 0 2.667h-3.276c.078-.886.066-1.781-.032-2.667h3.308m-4.651 0c.109.885.124 1.781.035 2.667h-3.835a12.013 12.013 0 01.035-2.667h3.765m-5.107 0c-.1.886-.11 1.779-.031 2.667H5.467a6.727 6.727 0 010-2.667h3.308m9.336 4a6.726 6.726 0 01-4.495 3.795c.7-1.17 1.191-2.455 1.45-3.795h3.045m-9.178 0a11.72 11.72 0 001.459 3.811 6.646 6.646 0 01-4.503-3.811h3.044m4.771 0c-.344 1.556-.908 2.668-1.704 3.829-.745-1.087-1.341-2.189-1.706-3.829h3.41M12 0C7.584 0 4 3.584 4 8c0 4.415 3.584 8 8 8 4.415 0 8-3.585 8-8 0-4.416-3.585-8-8-8"/>
    </symbol>
    <symbol id="image" viewBox="4 0 16 16">
        <path d="M20 14H4V2h16v12zM5.333 3.333v9.333h13.333V3.333H5.333zm11.334 8H7.333L10 7.36l1.654 1.307L13.333 6l3.334 5.333zM7.333 5.667a1 1 0 112 0 1 1 0 01-2 0z"/>
    </symbol>
    <symbol id="info" viewBox="4 0 16 16">
        <path d="M13.333 12h-2.667v-.667c.323-.119.667-.134.667-.489V7.865c0-.356-.344-.412-.667-.531v-.667h2v4.176c0 .356.345.372.666.49V12zM12 3.833a.833.833 0 110 1.666.833.833 0 010-1.666zM12 0a8 8 0 100 16 8 8 0 000-16z"/>
    </symbol>
    <symbol id="login" viewBox="4 0 16 16">
        <path d="M9.333 3.522V1.333H20v11.213l-5.333-4.513V2.666h-4V4.65L9.333 3.522zm0 4.478V5.333L14.667 10l-5.333 4.667V12H4V8h5.333z"/>
    </symbol>
    <symbol id="logo-symbol" viewBox="16 0 16 16">
        <path d="M16.286 6.216l3.825-3.825c.383-.383.893-.383 1.275 0l3.06 3.06c.382.382.382.893 0 1.275l-3.188 3.187.511.511 1.912 1.912c.382.383.382.893 0 1.274-.383.383-.893.383-1.275 0l-3.06-3.06-3.06-3.06c-.382-.382-.382-.892 0-1.274zm4.463-1.913l-2.55 2.55 1.784 1.785 2.551-2.55-1.785-1.785zm1.147 4.972l-.638.638.51.51c-.254-.319-.191-.828.128-1.148z"/>
        <path d="M26.104 6.726l.003-.004-2.553 2.554c-.383.383-.383.893 0 1.275l3.06 3.059c.383.383.893.383 1.274 0l3.825-3.824c.383-.382.383-.893 0-1.275l-3.06-3.06-3.061-3.059c-.382-.383-.892-.383-1.274 0-.382.382-.382.892 0 1.274l1.912 1.912.51.51-.636.638zm-.638 3.187l2.55-2.551L29.8 9.147l-2.549 2.551-1.785-1.785zm1.274-3.825l-.634.634c.315-.318.379-.826.124-1.144l.51.51z"/>
    </symbol>
    <symbol id="magnifier" viewBox="4 0 16 16">
        <path d="M6.412 6.312a3.964 3.964 0 013.96-3.959 3.962 3.962 0 013.959 3.959 3.962 3.962 0 01-3.959 3.959 3.962 3.962 0 01-3.96-3.959zM19.94 13.92l-4.235-4.236a6.275 6.275 0 00.979-3.373A6.318 6.318 0 0010.372 0 6.32 6.32 0 004.06 6.312a6.32 6.32 0 006.312 6.313 6.273 6.273 0 003.227-.89L17.86 16l2.08-2.08z"/>
    </symbol>
    <symbol id="minus" viewBox="5 0 16 16">
        <path d="M5 10.462V5.538h16v4.924H5z"/>
    </symbol>
    <symbol id="open-new-window" viewBox="0 0 24 22">
        <path d="M24 0H13.012l4.035 4-6.977 7.07 2.828 2.828 6.977-7.07L24 11zm-5 12v8H2V5h10V3H0v19h21V12z"/>
    </symbol>
    <symbol id="placeholder" viewBox="0 0 74 56">
        <path d="M74 56H0V.5h74zM6.167 6.667v43.166h61.666V6.667zm52.416 37H15.417L27.75 25.29l7.65 6.043L43.167 19zM15.417 17.458a4.627 4.627 0 014.625-4.625 4.625 4.625 0 11-4.625 4.625z"/>
    </symbol>
    <symbol id="share" viewBox="4 0 16 16">
        <path d="M20 2.667a2.667 2.667 0 10-5.333 0c0 .216.032.423.081.624l-3.659 1.951c.264.357.477.751.629 1.176l3.658-1.951a2.654 2.654 0 001.957.867A2.668 2.668 0 0020 2.667zM14.748 12.71a2.622 2.622 0 00-.081.623 2.666 2.666 0 102.666-2.666 2.65 2.65 0 00-1.957.867l-3.658-1.951c-.151.42-.363.816-.629 1.176l3.659 1.951zM4 8a3.334 3.334 0 006.667 0 3.332 3.332 0 00-3.333-3.333A3.332 3.332 0 004 8z"/>
    </symbol>
    <symbol id="star" viewBox="4 0 16 16">
        <path d="M12 .392l1.889 5.812H20l-4.944 3.593 1.889 5.813L12 12.017l-4.945 3.592 1.889-5.813L4 6.203h6.111L12 .392z"/>
    </symbol>
    <symbol id="translate" viewBox="4 0 16 16">
        <path d="M7.419 16l3.247-3.333h-2V0H6v12.667H4L7.419 16zM16.581 0l-3.248 3.333h2V16H18V3.333h2L16.581 0z"/>
    </symbol>
    <symbol id="up" viewBox="1 0 16 16">
        <path d="M11.667 14.667H6.333V16h5.333v-1.333zm-5.334-1.334h5.333V6.667H15L9 0 3 6.667h3.333v6.666z"/>
    </symbol>
    <symbol id="wheel" viewBox="4 0 16 16">
        <path d="M12 10.667a2.667 2.667 0 110-5.334 2.667 2.667 0 010 5.334zm8-1.59V6.922c-1.101-.391-1.796-.501-2.146-1.346-.352-.848.066-1.423.564-2.471l-1.523-1.523c-1.041.495-1.622.917-2.471.564h-.002c-.845-.351-.955-1.051-1.345-2.146h-2.155c-.388 1.09-.499 1.794-1.346 2.146-.847.352-1.421-.065-2.471-.564L5.582 3.105c.496 1.045.916 1.622.564 2.471-.352.847-1.056.959-2.146 1.346v2.155c1.088.387 1.794.5 2.146 1.346.354.855-.076 1.444-.564 2.472l1.523 1.524c1.041-.496 1.622-.917 2.471-.564h.001c.847.35.957 1.052 1.346 2.146h2.155c.389-1.091.5-1.793 1.352-2.148h.001c.841-.349 1.413.067 2.465.567l1.523-1.523c-.496-1.043-.917-1.622-.565-2.471.35-.849 1.057-.961 2.146-1.349z"/>
    </symbol>
    <symbol id="zoom" viewBox="4 0 16 16">
        <path d="M10 10.667c2.573 0 4.667-2.094 4.667-4.667S12.573 1.333 10 1.333 5.333 3.427 5.333 6 7.427 10.667 10 10.667zM18.114 16l-4.924-4.925A5.957 5.957 0 0110 12a6 6 0 116-6c0 1.129-.32 2.236-.925 3.19L20 14.114 18.114 16zm-5.447-9.333h-2v2H9.333v-2h-2V5.333h2v-2h1.333v2h2v1.334z"/>
    </symbol>
</svg>
