<?xml version="1.0" encoding="utf-8"?>
<!-- Generator: Adobe Illustrator 16.0.3, SVG Export Plug-In . SVG Version: 6.00 Build 0)  -->
<!DOCTYPE svg PUBLIC "-//W3C//DTD SVG 1.1//EN" "http://www.w3.org/Graphics/SVG/1.1/DTD/svg11.dtd">
<svg version="1.1" id="Vrstva_1" xmlns="http://www.w3.org/2000/svg" xmlns:xlink="http://www.w3.org/1999/xlink" x="0px" y="0px"
	 width="16px" height="16px" viewBox="4 0 16 16" enable-background="new 4 0 16 16" xml:space="preserve">
<path d="M13.333,12h-2.667v-0.667c0.323-0.119,0.667-0.134,0.667-0.489V7.865c0-0.356-0.344-0.412-0.667-0.531V6.667h2v4.176
	c0,0.356,0.345,0.372,0.666,0.49V12z M12,3.833c0.46,0,0.833,0.373,0.833,0.833S12.459,5.5,12,5.5c-0.46,0-0.833-0.373-0.833-0.833
	C11.166,4.207,11.539,3.833,12,3.833z M12,0C7.582,0,4,3.582,4,8s3.582,8,8,8s8-3.582,8-8S16.418,0,12,0z"/>
</svg>
