<?xml version="1.0" encoding="utf-8"?>
<!-- Generator: Adobe Illustrator 16.0.3, SVG Export Plug-In . SVG Version: 6.00 Build 0)  -->
<!DOCTYPE svg PUBLIC "-//W3C//DTD SVG 1.1//EN" "http://www.w3.org/Graphics/SVG/1.1/DTD/svg11.dtd">
<svg version="1.1" id="Vrstva_1" xmlns="http://www.w3.org/2000/svg" xmlns:xlink="http://www.w3.org/1999/xlink" x="0px" y="0px"
	 width="16px" height="16px" viewBox="16 0 16 16" enable-background="new 16 0 16 16" xml:space="preserve">
<g>
	<path d="M16.286,6.216l3.825-3.825c0.383-0.383,0.893-0.383,1.275,0l3.06,3.06c0.382,0.382,0.382,0.893,0,1.275l-3.188,3.187
		l0.511,0.511l1.912,1.912c0.382,0.383,0.382,0.893,0,1.274c-0.383,0.383-0.893,0.383-1.275,0l-3.06-3.06l-3.06-3.06
		C15.904,7.108,15.904,6.598,16.286,6.216L16.286,6.216z M20.749,4.303l-2.55,2.55l1.784,1.785l2.551-2.55L20.749,4.303z
		 M21.896,9.275l-0.638,0.638l0.51,0.51C21.514,10.104,21.577,9.595,21.896,9.275z"/>
	<path d="M26.104,6.726l0.003-0.004l-2.553,2.554c-0.383,0.383-0.383,0.893,0,1.275l3.06,3.059c0.383,0.383,0.893,0.383,1.274,0
		l3.825-3.824c0.383-0.382,0.383-0.893,0-1.275l-3.06-3.06l-3.061-3.059c-0.382-0.383-0.892-0.383-1.274,0
		c-0.382,0.382-0.382,0.892,0,1.274l1.912,1.912l0.51,0.51L26.104,6.726z M25.466,9.913l2.55-2.551L29.8,9.147l-2.549,2.551
		L25.466,9.913z M26.74,6.088l-0.634,0.634c0.315-0.318,0.379-0.826,0.124-1.144L26.74,6.088z"/>
</g>
</svg>
