<?xml version="1.0" encoding="utf-8"?>
<!-- Generator: Adobe Illustrator 16.0.3, SVG Export Plug-In . SVG Version: 6.00 Build 0)  -->
<!DOCTYPE svg PUBLIC "-//W3C//DTD SVG 1.1//EN" "http://www.w3.org/Graphics/SVG/1.1/DTD/svg11.dtd">
<svg version="1.1" id="Vrstva_1" xmlns="http://www.w3.org/2000/svg" xmlns:xlink="http://www.w3.org/1999/xlink" x="0px" y="0px"
	 width="16px" height="16px" viewBox="4 0 16 16" enable-background="new 4 0 16 16" xml:space="preserve">
<g>
	<g>
		<path d="M6.412,6.312c0.003-2.186,1.774-3.956,3.96-3.959c2.185,0.002,3.958,1.773,3.959,3.959
			c-0.002,2.186-1.773,3.958-3.959,3.959C8.186,10.27,6.414,8.498,6.412,6.312z M19.94,13.92l-4.235-4.236
			c0.641-1.008,0.98-2.178,0.979-3.373C16.685,2.832,13.853,0,10.372,0C6.892,0,4.06,2.832,4.06,6.312
			c0,3.481,2.832,6.313,6.312,6.313c1.136,0.001,2.251-0.306,3.227-0.89L17.86,16L19.94,13.92z"/>
	</g>
</g>
</svg>
